<?xml version="1.0" encoding="UTF-8"?>
<svg viewBox="0 0 1052.362179 744.09447" xmlns="http://www.w3.org/2000/svg">
 <path d="m234.94 345.62c-5.6871-9.1533-2.2778-21.47-2.3033-32.246-0.0137-5.771-0.2571-11.678 1.1516-17.275 1.1323-4.4982 3.6553-8.5338 5.7583-12.668 4.5981-9.0399 7.8371-19.279 14.972-26.488 5.9286-5.9902 13.917-9.9105 21.881-12.668 5.1301-1.7764 10.696-2.4539 16.123-2.3033 5.87 0.16293 12.423 0.14684 17.275 3.455 5.2788 3.5993 7.7928 10.275 10.365 16.123 3.0363 6.904 4.7906 14.402 5.7583 21.881 0.54181 4.1878 0.97018 8.5584 0 12.668-1.775 7.5189-6.5859 13.992-10.365 20.73-5.3145 9.4761-9.7747 19.779-17.275 27.64-8.3801 8.783-17.812 20.273-29.943 20.73-12.895 0.48593-26.588-8.617-33.398-19.578z" fill="#faa" stroke="#000" stroke-width="7.0866"/>
 <path d="m108.26 513.76c-0.16486-17.038 12.361-31.783 19.578-47.218 8.0726-17.265 16.862-34.223 26.488-50.673 9.9484-17.001 18.818-35.109 32.246-49.521 12.143-13.032 27.385-23.002 42.611-32.246 14.531-8.8221 30.149-15.912 46.066-21.881 23.896-8.9622 49.245-13.448 73.706-20.73 13.498-4.0184 27.204-7.5056 40.308-12.668 18.212-7.1752 33.887-21.006 52.976-25.336 10.857-2.4626 22.357-1.4284 33.398 0 29.919 3.8708 59.515 11.83 87.526 23.033 19.941 7.9757 38.329 19.538 56.431 31.095 18.056 11.527 36.415 23.124 51.824 38.005 18.286 17.659 35.061 37.561 47.218 59.886 7.3733 13.54 11.11 28.837 14.972 43.763 2.7348 10.571 1.1016 22.37 5.7583 32.246 4.2975 9.1142 15.854 13.67 19.578 23.033 2.6992 6.7868 3.9299 15.127 1.1517 21.881-4.3415 10.556-16.001 16.466-25.336 23.033-11.377 8.0037-24.085 14.058-36.853 19.578-18.609 8.0446-37.616 16.064-57.583 19.578-54.832 9.6503-111.45-0.3779-166.99 3.455-19.666 1.3571-39.072 5.4905-58.734 6.9099-28.344 2.0462-60.212 15.796-85.222 2.3033-8.3444-4.5017-8.1504-17.599-14.971-24.185-6.6798-6.449-15.882-9.6644-24.185-13.82-11.224-5.6174-23.925-8.2885-34.55-14.971-6.4499-4.0573-9.9944-12.723-17.275-14.972-9.5996-2.9654-20.69-0.46041-29.943 3.455-5.0247 2.1262-7.5557 8.4595-12.668 10.365-12.955 4.8282-27.725 2.735-41.46 1.1517-7.4925-0.86376-14.977-2.722-21.881-5.7583-5.8485-2.5721-11.978-5.5027-16.123-10.365-4.3494-5.102-7.9967-11.723-8.0616-18.426z" fill="#ccc" stroke="#000" stroke-width="7.0866"/>
 <path d="m268.34 373.26c-1.908-11.461-3.8372-22.957-4.6066-34.55-0.63559-9.576-2.014-19.408 0-28.791 1.7668-8.2318 5.6947-16.028 10.365-23.033s10.592-13.306 17.275-18.426c5.1802-3.9692 10.944-7.6304 17.275-9.2132 7.076-1.769 14.682-1.1683 21.881 0 5.9914 0.97227 12.689 1.7814 17.275 5.7583 3.8908 3.3745 4.8 9.1215 6.9099 13.82 2.5406 5.6576 5.7371 11.185 6.9099 17.275 1.3793 7.1622 1.254 14.696 0 21.881-1.7536 10.048-5.7747 19.682-10.365 28.791-3.7372 7.4163-8.8747 14.058-13.82 20.73-8.283 11.175-15.322 23.951-26.488 32.246-4.006 2.9761-13.82 5.7583-13.82 5.7583s-21.499-15.302-27.64-26.488c-0.94194-1.7159-0.83019-3.8274-1.1516-5.7583z" fill="#faa" stroke="#000" stroke-width="7.0866"/>
 <path d="m747.42 508.01c14.408-11.493 36.858-1.742 55.279-1.1516 18.098 0.58 36.092 2.9937 54.128 4.6066 12.289 1.099 24.637 1.7229 36.853 3.455 8.1252 1.1521 16.001 3.9926 24.185 4.6066 9.9604 0.74733 20.457 1.9755 29.943-1.1517 9.7078-3.2002 16.678-11.842 25.336-17.275 12.382-7.7699 26.194-13.268 38.005-21.881 4.6109-3.3627 12.668-11.517 12.668-11.517s-24.335 26.424-38.005 38.005c-10.079 8.5381-20.681 16.651-32.246 23.033-7.989 4.4089-16.305 9.0616-25.336 10.365-18.714 2.7005-37.54-4.963-56.431-5.7583-43.731-1.841-91.382-0.28778-131.29 2.3033-9.4768 0.61533-0.51422-21.718 6.9099-27.64z" fill="#ffb380" stroke="#000" stroke-width="7.0866"/>
 <path d="m314.4 556.37c-8.826 1.3518-4.2585 18.984-11.517 24.185-5.3414 3.8273-13.008 2.4077-19.578 2.3033-7.7626-0.12336-15.273-3.6824-23.033-3.455-7.4505 0.21838-15.754 0.36245-21.881 4.6066-4.1146 2.85-8.0616 12.668-8.0616 12.668s23.009 2.1328 34.55 2.3033c10.371 0.15323 20.734-0.67202 31.095-1.1516 6.9132-0.32003 14.91 2.5939 20.73-1.1517 7.6525-4.9254 13.874-15.164 12.668-24.185-0.97207-7.2694-7.7219-17.234-14.971-16.123z" fill="#de8787" stroke="#000" stroke-width="7.0866"/>
 <path d="m696.75 541.4c-9.2621 7.0144 4.3932 27.202-4.6066 34.55-8.644 7.0574-23.012-6.3843-33.398-2.3033-7.836 3.079-13.856 10.733-17.275 18.426-1.8771 4.2243-4.4009 10.532-1.1517 13.82 3.7873 3.8324 11.158 0.94148 16.123-1.1516 4.2595-1.7958 5.9177-10.474 10.365-9.2132 3.8558 1.0935 0.23947 9.1241 3.455 11.517 3.3879 2.5207 9.1974 2.4052 12.668 0 2.6958-1.8682 0.2927-8.3427 3.455-9.2132 2.3699-0.65243 3.753 3.1851 5.7583 4.6066 2.9545 2.0944 5.5934 5.8699 9.2132 5.7583 3.3007-0.10178 6.3904-2.91 8.0616-5.7583 3.5183-5.9965-4.4171-18.949 2.3033-20.73 5.0472-1.3376 4.0221 12.107 9.2132 12.668 4.5958 0.49679 10.229-4.5926 10.365-9.2132 0.12757-4.3413-7.0107-5.47-9.2132-9.2132-5.6691-9.6348-0.78825-24.899-9.2132-32.246-4.0915-3.5683-11.795-5.5809-16.123-2.3033z" fill="#de8787" stroke="#000" stroke-width="7.0866"/>
 <path d="m207.3 415.87c-3.8388-0.0179-6.9114 3.8378-9.2132 6.9099-1.9667 2.6248-3.1379 5.9487-3.455 9.2132-0.45142 4.6483-0.82791 10.355 2.3033 13.82 2.9346 3.2474 8.2912 3.455 12.668 3.455s9.5237-0.41029 12.668-3.455c3.7511-3.6321 6.1981-9.9986 4.6066-14.971-2.5041-7.8246-11.363-14.933-19.578-14.972z" stroke="#000" stroke-width="7.0866"/>
 <path transform="translate(-10.365 -5.7583)" d="m107.94 513.73a14.396 15.547 0 1 1 -0.1691 0.54405" fill="#1a1a1a"/>
 <path d="m114.01 509.16 160.08-27.64" fill="#808080" stroke="#000" stroke-opacity=".7725" stroke-width="3.5433"/>
 <path d="m116.18 513.21 111.98 6.8594" fill="#808080" stroke="#000" stroke-opacity=".7725" stroke-width="3.5433"/>
 <path d="m112.86 518.37 100.19 39.156" fill="#808080" stroke="#000" stroke-opacity=".7725" stroke-width="3.5433"/>
</svg>
